<?xml version="1.0" encoding="UTF-8"?>
<svg xmlns="http://www.w3.org/2000/svg" xmlns:xlink="http://www.w3.org/1999/xlink" viewBox="0 0 96 96" width="96px" height="96px">
<g id="surface149695214">
<path style=" stroke:none;fill-rule:nonzero;fill:rgb(0.392157%,0.392157%,0.392157%);fill-opacity:1;" d="M 48.230469 46.058594 C 47.625 46.058594 47.039062 45.839844 46.617188 45.429688 C 45.84375 44.683594 45.785156 43.410156 46.484375 42.648438 C 46.539062 42.589844 46.601562 42.53125 46.667969 42.472656 C 46.832031 42.253906 47.078125 42.097656 47.371094 42.054688 C 47.816406 41.992188 48.375 41.910156 48.96875 42.066406 C 49.816406 42.285156 50.449219 42.964844 50.546875 43.757812 C 50.65625 44.683594 50.023438 45.59375 49.039062 45.925781 C 48.777344 46.015625 48.503906 46.058594 48.230469 46.058594 Z M 48.230469 46.058594 "/>
<path style=" stroke:none;fill-rule:nonzero;fill:rgb(0.392157%,0.392157%,0.392157%);fill-opacity:1;" d="M 72.101562 43.933594 C 71.609375 43.933594 71.136719 43.75 70.777344 43.40625 C 70.144531 42.808594 69.957031 41.84375 70.316406 41.066406 C 70.527344 40.605469 70.925781 40.253906 71.402344 40.105469 C 71.730469 39.996094 72.082031 39.996094 72.402344 40.101562 C 72.996094 40.160156 73.519531 40.546875 73.800781 41.144531 C 74.09375 41.765625 74.0625 42.496094 73.71875 43.046875 C 73.425781 43.527344 72.933594 43.839844 72.371094 43.917969 C 72.28125 43.929688 72.191406 43.933594 72.101562 43.933594 Z M 71.582031 42.332031 C 71.585938 42.332031 71.585938 42.335938 71.585938 42.335938 C 71.585938 42.335938 71.585938 42.332031 71.582031 42.332031 Z M 71.582031 42.332031 "/>
<path style=" stroke:none;fill-rule:nonzero;fill:rgb(0.392157%,0.392157%,0.392157%);fill-opacity:1;" d="M 30.886719 61.359375 C 30.753906 61.359375 30.613281 61.328125 30.484375 61.273438 C 29.976562 61.050781 29.746094 60.460938 29.96875 59.957031 C 30.1875 59.460938 30.695312 58.304688 31.863281 58.082031 C 32.421875 57.972656 32.914062 58.132812 33.273438 58.246094 C 33.441406 58.300781 33.613281 58.359375 33.707031 58.359375 C 34.261719 58.359375 34.707031 58.804688 34.707031 59.359375 C 34.707031 59.910156 34.261719 60.359375 33.707031 60.359375 C 33.300781 60.359375 32.945312 60.242188 32.660156 60.152344 C 32.523438 60.109375 32.3125 60.035156 32.242188 60.046875 C 32.207031 60.058594 32.066406 60.15625 31.800781 60.757812 C 31.636719 61.132812 31.273438 61.359375 30.886719 61.359375 Z M 30.886719 61.359375 "/>
<path style=" stroke:none;fill-rule:nonzero;fill:rgb(0.392157%,0.392157%,0.392157%);fill-opacity:1;" d="M 81.242188 70.292969 C 80.503906 69.34375 79.375 68.917969 78.359375 68.652344 C 78.78125 67.21875 78.433594 65.566406 77.300781 63.628906 C 76.410156 62.097656 74.910156 60.789062 73.585938 59.632812 C 73.253906 59.34375 72.925781 59.054688 72.621094 58.777344 C 72.53125 58.695312 72.425781 58.609375 72.328125 58.523438 C 73.351562 57.964844 74.398438 57.1875 74.816406 56.472656 C 75.460938 55.367188 75.6875 54.148438 75.808594 53.210938 C 75.929688 52.292969 75.964844 51.527344 75.503906 50.707031 C 77.816406 48.265625 78.398438 44.363281 77.894531 41.527344 C 77.613281 39.964844 76.992188 38.511719 76.433594 37.273438 C 76.195312 36.746094 75.757812 36.238281 75.371094 35.796875 C 75.203125 35.601562 75.042969 35.417969 74.914062 35.246094 C 74.511719 34.699219 73.957031 34.203125 73.328125 33.738281 C 73.46875 33.527344 73.589844 33.292969 73.65625 33.027344 C 73.84375 32.28125 73.699219 31.410156 73.273438 30.707031 C 72.976562 30.214844 72.59375 29.816406 72.257812 29.464844 C 72.015625 29.214844 71.773438 28.964844 71.574219 28.679688 C 71.132812 28.03125 70.960938 27.175781 70.777344 26.269531 C 70.714844 25.96875 70.652344 25.671875 70.582031 25.375 C 69.980469 22.839844 68.632812 20.378906 66.355469 17.628906 C 64.992188 15.992188 59.195312 9.339844 55.707031 6.722656 C 53.449219 5.03125 50.804688 4.199219 48.363281 3.921875 C 45.988281 0.390625 41.070312 -0.492188 37.472656 0.535156 C 35.609375 1.066406 34.082031 2.105469 32.96875 3.457031 C 32.804688 3.4375 32.644531 3.382812 32.476562 3.371094 C 30.28125 3.191406 27.972656 3.8125 26.050781 5.121094 C 25.136719 5.746094 24.457031 6.421875 23.972656 7.179688 C 23.507812 7.898438 23.179688 8.78125 22.964844 9.867188 C 22.539062 12.054688 22.726562 14.320312 23.425781 16.414062 C 22.28125 17.964844 21.363281 19.664062 20.890625 21.308594 C 19.859375 24.902344 20.542969 28.726562 21.351562 31.992188 C 22.585938 37.011719 24.328125 41.933594 26.53125 46.621094 C 26.78125 47.15625 27.0625 47.714844 27.359375 48.273438 C 26.09375 47.019531 24.886719 45.761719 23.886719 44.574219 C 23.617188 44.253906 23.171875 44.136719 22.78125 44.28125 C 22.382812 44.425781 22.121094 44.800781 22.121094 45.21875 C 22.121094 46.378906 22.175781 47.492188 22.226562 48.589844 C 22.320312 50.671875 22.414062 52.636719 22.132812 54.699219 C 22.054688 55.242188 22.441406 55.746094 22.988281 55.824219 C 23.03125 55.832031 23.078125 55.832031 23.125 55.832031 C 23.617188 55.832031 24.042969 55.46875 24.113281 54.96875 C 24.417969 52.730469 24.320312 50.675781 24.222656 48.496094 C 24.214844 48.300781 24.203125 48.109375 24.195312 47.914062 C 26.101562 49.921875 28.300781 51.964844 30.273438 53.773438 C 30.285156 53.875 30.316406 53.976562 30.316406 54.078125 C 28.738281 54.613281 27.519531 55.695312 26.8125 57.3125 C 26.238281 58.636719 26.054688 60.015625 26.273438 61.292969 C 26.523438 62.761719 27.316406 64.054688 28.449219 64.839844 C 29.300781 65.429688 30.359375 65.730469 31.464844 65.730469 C 31.574219 65.730469 31.691406 65.710938 31.804688 65.707031 C 32.753906 70.144531 31.378906 75.300781 30.035156 78.871094 L 29.621094 79.945312 C 29.058594 81.394531 28.417969 83.039062 28.105469 84.527344 C 28.09375 84.59375 28.082031 84.660156 28.082031 84.730469 C 28.082031 86.328125 29.066406 86.90625 29.488281 87.152344 C 37.824219 92.0625 47.058594 95.105469 56.195312 95.957031 C 56.539062 95.984375 56.875 96 57.207031 96 C 58.683594 96 60.042969 95.71875 60.988281 95.453125 C 61.464844 95.320312 61.773438 94.859375 61.710938 94.371094 C 61.421875 91.992188 61.941406 88.285156 62.179688 86.804688 C 62.195312 86.707031 62.179688 86.613281 62.167969 86.523438 C 63.042969 86.054688 63.820312 85.386719 64.433594 84.398438 C 64.527344 84.242188 64.683594 83.980469 64.757812 83.941406 C 64.808594 83.917969 65 83.921875 65.132812 83.929688 C 65.136719 83.929688 65.328125 83.929688 65.335938 83.929688 C 67.714844 83.929688 69.898438 82.046875 70.28125 79.703125 C 71.632812 79.546875 73.011719 79.3125 74.320312 78.964844 C 75.710938 78.59375 77.1875 78.171875 78.574219 77.425781 C 79.957031 76.6875 80.945312 75.753906 81.507812 74.660156 C 82.25 73.207031 82.148438 71.453125 81.242188 70.292969 Z M 74.609375 38.097656 C 75.121094 39.226562 75.6875 40.542969 75.925781 41.878906 C 76.347656 44.265625 75.824219 47.421875 74.097656 49.292969 C 72.816406 48.527344 70.929688 48.121094 69.976562 48.109375 C 68.832031 48.09375 67.71875 48.101562 66.609375 48.109375 C 65.488281 48.117188 64.367188 48.121094 63.207031 48.109375 C 62.738281 48.101562 62.253906 48.09375 61.914062 47.9375 L 61.582031 47.792969 C 61.34375 47.6875 60.742188 47.433594 60.492188 47.25 C 60.480469 47.210938 60.445312 47.1875 60.433594 47.148438 C 60.898438 45.617188 61.128906 43.984375 61.03125 42.320312 C 60.980469 41.503906 60.871094 40.789062 60.6875 40.140625 C 60.453125 39.316406 60.058594 38.488281 59.503906 37.578125 C 60.683594 35.757812 62.464844 34.476562 64.726562 33.90625 C 67.054688 33.324219 69.648438 33.734375 71.675781 34.996094 C 72.378906 35.433594 72.925781 35.914062 73.304688 36.433594 C 73.453125 36.640625 73.652344 36.867188 73.859375 37.105469 C 74.136719 37.429688 74.492188 37.835938 74.609375 38.097656 Z M 57.695312 38.429688 C 58.222656 39.265625 58.5625 39.980469 58.761719 40.683594 C 58.902344 41.1875 58.992188 41.761719 59.035156 42.4375 C 59.179688 44.902344 58.570312 47.3125 57.324219 49.230469 C 56.039062 51.203125 54.101562 52.574219 52.007812 52.996094 C 51.371094 53.125 50.667969 53.175781 49.867188 53.160156 C 48.707031 53.132812 47.546875 52.964844 46.425781 52.664062 C 44.914062 52.257812 42.941406 51.394531 42.089844 49.613281 C 41.773438 48.949219 41.621094 48.167969 41.460938 47.339844 C 41.148438 45.742188 40.824219 44.089844 40.914062 42.492188 C 41.058594 39.964844 42.277344 37.5625 44.171875 36.058594 C 45.785156 34.773438 47.792969 34.488281 49.804688 34.488281 C 50.167969 34.488281 50.527344 34.496094 50.890625 34.515625 C 53.699219 34.621094 56.179688 36.046875 57.695312 38.429688 Z M 38.019531 2.453125 C 40.449219 1.769531 43.570312 2.175781 45.597656 3.824219 C 45.085938 3.851562 44.59375 3.894531 44.140625 3.960938 C 42.585938 4.191406 41.152344 4.785156 39.820312 5.371094 C 39.277344 5.609375 38.753906 5.851562 38.230469 6.09375 C 37.375 5.199219 36.324219 4.511719 35.160156 4.042969 C 35.941406 3.324219 36.902344 2.773438 38.019531 2.453125 Z M 33.867188 5.679688 C 34.773438 5.960938 35.597656 6.417969 36.300781 7.019531 C 35.144531 7.589844 34.054688 8.164062 33.019531 8.75 C 33.070312 7.628906 33.359375 6.589844 33.867188 5.679688 Z M 24.933594 10.246094 C 25.09375 9.414062 25.328125 8.765625 25.65625 8.253906 C 25.992188 7.722656 26.488281 7.238281 27.175781 6.773438 C 28.5625 5.824219 30.191406 5.359375 31.785156 5.367188 C 31.25 6.5625 30.957031 7.890625 30.992188 9.316406 C 31 9.507812 31.03125 9.71875 31.046875 9.921875 C 29.132812 11.113281 27.433594 12.335938 25.960938 13.605469 C 25.625 13.890625 25.324219 14.234375 25.007812 14.558594 C 24.703125 13.136719 24.652344 11.660156 24.933594 10.246094 Z M 29.59375 63.191406 C 28.90625 62.71875 28.40625 61.882812 28.246094 60.953125 C 28.09375 60.054688 28.230469 59.074219 28.648438 58.109375 C 29.210938 56.816406 30.140625 56.058594 31.484375 55.789062 C 33.027344 55.476562 34.179688 55.777344 35.015625 56.710938 C 35.925781 57.722656 36.21875 59.3125 35.746094 60.671875 C 35.289062 62.003906 34.132812 63.097656 32.730469 63.535156 C 31.585938 63.890625 30.417969 63.761719 29.59375 63.191406 Z M 59.648438 93.722656 C 58.503906 93.96875 57.367188 94.046875 56.382812 93.960938 C 47.539062 93.136719 38.589844 90.1875 30.507812 85.429688 C 30.222656 85.261719 30.105469 85.191406 30.089844 84.824219 C 30.378906 83.523438 30.964844 82.007812 31.484375 80.667969 L 31.90625 79.570312 C 33.351562 75.738281 34.820312 70.171875 33.753906 65.25 C 35.550781 64.542969 37.023438 63.09375 37.636719 61.320312 C 38.347656 59.265625 37.902344 56.929688 36.503906 55.371094 C 35.578125 54.34375 34.367188 53.800781 32.960938 53.710938 L 33.613281 45.957031 C 34.71875 48.207031 35.988281 50.378906 37.414062 52.445312 C 37.726562 52.902344 38.351562 53.015625 38.804688 52.699219 C 39.257812 52.386719 39.371094 51.765625 39.058594 51.308594 C 36.96875 48.28125 35.226562 45.019531 33.871094 41.605469 C 33.703125 41.175781 33.253906 40.921875 32.796875 40.984375 C 32.339844 41.050781 31.984375 41.429688 31.945312 41.890625 L 31.207031 50.679688 C 30.925781 50.203125 30.632812 49.742188 30.339844 49.308594 C 30.121094 48.988281 29.902344 48.671875 29.699219 48.347656 C 29.179688 47.515625 28.738281 46.617188 28.335938 45.765625 C 26.191406 41.199219 24.492188 36.402344 23.289062 31.511719 C 22.546875 28.5 21.910156 24.996094 22.8125 21.855469 C 23.121094 20.78125 23.675781 19.644531 24.359375 18.558594 C 24.9375 19.617188 25.640625 20.601562 26.496094 21.460938 C 26.691406 21.65625 26.949219 21.753906 27.203125 21.753906 C 27.457031 21.753906 27.714844 21.65625 27.910156 21.460938 C 28.300781 21.070312 28.300781 20.4375 27.914062 20.046875 C 26.972656 19.105469 26.222656 17.96875 25.6875 16.734375 C 26.183594 16.144531 26.707031 15.59375 27.261719 15.117188 C 28.476562 14.066406 29.847656 13.050781 31.386719 12.054688 C 31.386719 12.058594 31.386719 12.0625 31.386719 12.066406 C 31.761719 13.652344 32.289062 15.210938 32.957031 16.695312 C 33.121094 17.066406 33.488281 17.285156 33.867188 17.285156 C 34.003906 17.285156 34.144531 17.257812 34.277344 17.199219 C 34.78125 16.972656 35.007812 16.378906 34.78125 15.875 C 34.164062 14.507812 33.679688 13.070312 33.332031 11.609375 C 33.273438 11.363281 33.242188 11.160156 33.203125 10.941406 C 35.375 9.664062 37.832031 8.421875 40.621094 7.195312 C 41.828125 6.664062 43.121094 6.128906 44.429688 5.933594 C 47.214844 5.519531 51.316406 5.929688 54.496094 8.316406 C 57.828125 10.8125 63.476562 17.300781 64.804688 18.898438 C 66.882812 21.402344 68.097656 23.605469 68.628906 25.835938 C 68.695312 26.105469 68.753906 26.382812 68.808594 26.660156 C 69.023438 27.722656 69.246094 28.820312 69.917969 29.800781 C 70.175781 30.175781 70.488281 30.507812 70.804688 30.839844 C 71.097656 31.144531 71.367188 31.433594 71.550781 31.734375 C 71.699219 31.972656 71.761719 32.3125 71.707031 32.535156 C 71.679688 32.640625 71.644531 32.660156 71.632812 32.664062 C 71.609375 32.683594 71.59375 32.707031 71.570312 32.722656 C 69.289062 31.65625 66.695312 31.339844 64.234375 31.957031 C 61.757812 32.582031 59.699219 33.984375 58.246094 35.898438 C 56.378906 33.84375 53.8125 32.617188 50.957031 32.507812 C 48.335938 32.410156 45.339844 32.558594 42.914062 34.484375 C 40.582031 36.339844 39.082031 39.285156 38.90625 42.371094 C 38.800781 44.21875 39.148438 45.996094 39.484375 47.71875 C 39.664062 48.628906 39.847656 49.570312 40.277344 50.464844 C 41.453125 52.933594 43.980469 54.070312 45.890625 54.585938 C 47.171875 54.933594 48.492188 55.125 49.816406 55.152344 C 49.929688 55.152344 50.042969 55.15625 50.152344 55.15625 C 50.96875 55.15625 51.703125 55.089844 52.390625 54.949219 C 55.011719 54.421875 57.414062 52.730469 58.992188 50.3125 C 59.246094 49.925781 59.449219 49.496094 59.65625 49.074219 C 60.03125 49.296875 60.441406 49.472656 60.789062 49.621094 L 61.0625 49.742188 C 61.789062 50.078125 62.554688 50.09375 63.171875 50.101562 C 64.351562 50.117188 65.484375 50.109375 66.617188 50.101562 C 67.714844 50.09375 68.808594 50.082031 69.945312 50.101562 C 70.96875 50.113281 72.925781 50.710938 73.453125 51.277344 C 73.910156 51.769531 73.949219 51.941406 73.816406 52.949219 C 73.675781 54.0625 73.445312 54.835938 73.082031 55.460938 C 72.796875 55.949219 71.296875 56.910156 70.394531 57.222656 C 70.113281 57.09375 69.820312 56.980469 69.507812 56.902344 C 68.398438 56.621094 67.339844 56.757812 66.3125 56.878906 L 65.582031 56.960938 C 63.539062 57.164062 61.8125 57.019531 60.300781 56.539062 C 60.210938 56.511719 60.113281 56.496094 60.019531 56.492188 C 56.132812 56.414062 51.925781 57.566406 47.765625 59.804688 C 46.980469 60.226562 45.964844 60.816406 45.058594 61.609375 C 43.792969 62.714844 42.871094 64.09375 42.039062 65.40625 C 41.460938 66.320312 40.863281 67.308594 40.492188 68.417969 C 40.113281 69.558594 40 70.753906 39.898438 71.808594 C 39.589844 75.078125 39.292969 78.167969 41.414062 81.257812 C 43.117188 83.734375 45.96875 85.007812 48.796875 86.007812 C 51.167969 86.851562 53.703125 87.621094 56.296875 87.621094 C 56.480469 87.621094 56.660156 87.617188 56.839844 87.609375 C 57.933594 87.5625 59.035156 87.484375 60.074219 87.261719 C 59.851562 88.886719 59.539062 91.558594 59.648438 93.722656 Z M 79.722656 73.746094 C 79.351562 74.472656 78.648438 75.117188 77.628906 75.664062 C 76.429688 76.300781 75.082031 76.691406 73.800781 77.03125 C 70.019531 78.042969 65.511719 78.042969 63.15625 77.941406 C 59.035156 77.78125 55.027344 76.371094 51.148438 75.007812 C 51.054688 74.972656 50.957031 74.96875 50.859375 74.964844 C 51.136719 74.648438 51.425781 74.378906 51.664062 74.210938 C 52.707031 73.476562 51.710938 71.738281 50.652344 72.484375 C 49.59375 73.230469 48.773438 74.195312 48.3125 75.421875 C 47.933594 76.4375 47.597656 77.910156 48.707031 78.5625 C 49.71875 79.15625 50.625 77.792969 49.953125 77.046875 C 49.929688 76.863281 49.933594 76.675781 49.984375 76.476562 C 50.101562 76.660156 50.265625 76.816406 50.484375 76.894531 C 54.503906 78.308594 58.652344 79.769531 63.078125 79.941406 C 64.320312 79.988281 66.148438 80.015625 68.171875 79.890625 C 67.742188 81.042969 66.542969 81.929688 65.175781 81.929688 C 64.847656 81.917969 64.417969 81.914062 63.972656 82.101562 C 63.3125 82.386719 62.972656 82.949219 62.644531 83.484375 C 61.535156 85.273438 59.230469 85.515625 56.765625 85.617188 C 54.457031 85.722656 52.183594 85.09375 49.472656 84.132812 C 46.964844 83.242188 44.449219 82.140625 43.070312 80.132812 C 41.363281 77.640625 41.613281 75.03125 41.898438 72.007812 C 41.992188 71.011719 42.089844 69.980469 42.394531 69.058594 C 42.695312 68.164062 43.203125 67.328125 43.738281 66.484375 C 44.492188 65.292969 45.316406 64.050781 46.382812 63.121094 C 47.140625 62.457031 48.03125 61.945312 48.722656 61.570312 C 52.464844 59.554688 56.246094 58.496094 59.679688 58.496094 C 59.734375 58.496094 59.792969 58.496094 59.847656 58.496094 C 61.585938 59.027344 63.53125 59.175781 65.78125 58.960938 C 66.042969 58.933594 66.300781 58.902344 66.5625 58.871094 C 67.449219 58.761719 68.285156 58.660156 69.023438 58.847656 C 69.890625 59.0625 70.675781 59.714844 71.269531 60.253906 C 71.582031 60.542969 71.921875 60.839844 72.269531 61.136719 C 73.535156 62.246094 74.847656 63.386719 75.574219 64.632812 C 76.46875 66.171875 76.734375 67.40625 76.347656 68.351562 C 76.277344 68.519531 76.160156 68.796875 76.195312 69.144531 C 76.230469 69.554688 76.46875 70.285156 77.683594 70.550781 C 78.710938 70.777344 79.320312 71.078125 79.664062 71.519531 C 80.09375 72.070312 80.117188 72.984375 79.722656 73.746094 Z M 79.722656 73.746094 "/>
</g>
</svg>
