<?xml version="1.0" encoding="UTF-8"?>
<svg xmlns="http://www.w3.org/2000/svg" xmlns:xlink="http://www.w3.org/1999/xlink" viewBox="0 0 96 96" width="96px" height="96px">
<g id="surface149527789">
<path style=" stroke:none;fill-rule:nonzero;fill:rgb(0.392157%,0.392157%,0.392157%);fill-opacity:1;" d="M 27.40625 53.921875 C 27.503906 54.007812 27.617188 54.066406 27.746094 54.097656 C 27.769531 54.105469 27.792969 54.097656 27.816406 54.101562 C 27.828125 54.113281 27.835938 54.128906 27.847656 54.140625 C 28.117188 54.398438 28.449219 54.53125 28.820312 54.550781 C 28.847656 54.550781 28.875 54.550781 28.898438 54.546875 C 29.007812 54.539062 29.121094 54.527344 29.230469 54.503906 C 29.261719 54.496094 29.289062 54.488281 29.316406 54.476562 C 29.421875 54.4375 29.527344 54.394531 29.628906 54.34375 C 29.746094 54.277344 29.859375 54.1875 29.960938 54.097656 C 30.027344 54.039062 30.074219 53.96875 30.128906 53.898438 C 30.261719 53.726562 30.351562 53.558594 30.414062 53.34375 C 30.425781 53.300781 30.433594 53.261719 30.441406 53.21875 C 30.460938 53.089844 30.484375 52.960938 30.484375 52.828125 C 30.480469 52.707031 30.457031 52.578125 30.441406 52.457031 C 30.433594 52.40625 30.425781 52.359375 30.410156 52.3125 C 30.367188 52.152344 30.300781 51.988281 30.210938 51.847656 C 30.125 51.707031 30.023438 51.5625 29.894531 51.453125 C 29.675781 51.269531 29.519531 51.179688 29.253906 51.078125 C 29.210938 51.0625 29.164062 51.050781 29.121094 51.042969 C 28.992188 51.023438 28.851562 50.992188 28.71875 51.003906 C 28.414062 51.027344 28.230469 51.078125 27.957031 51.210938 C 27.90625 51.234375 27.859375 51.265625 27.816406 51.296875 C 27.707031 51.375 27.59375 51.453125 27.503906 51.550781 C 27.40625 51.652344 27.320312 51.765625 27.242188 51.878906 C 27.210938 51.929688 27.183594 51.980469 27.15625 52.035156 C 27.039062 52.300781 26.964844 52.523438 26.953125 52.824219 C 26.945312 53.121094 27.03125 53.371094 27.152344 53.632812 C 27.214844 53.757812 27.296875 53.847656 27.40625 53.921875 Z M 27.40625 53.921875 "/>
<path style=" stroke:none;fill-rule:nonzero;fill:rgb(0.392157%,0.392157%,0.392157%);fill-opacity:1;" d="M 49.933594 52.304688 C 49.828125 52.242188 49.714844 52.195312 49.601562 52.164062 C 49.582031 52.15625 49.5625 52.15625 49.546875 52.152344 C 49.445312 52.136719 49.339844 52.117188 49.238281 52.113281 C 49.21875 52.113281 49.199219 52.113281 49.179688 52.113281 C 49.082031 52.121094 48.976562 52.136719 48.878906 52.15625 C 48.800781 52.171875 48.726562 52.207031 48.652344 52.238281 C 48.582031 52.269531 48.507812 52.292969 48.445312 52.339844 C 48.34375 52.402344 48.246094 52.476562 48.160156 52.558594 C 48.144531 52.574219 48.128906 52.59375 48.113281 52.609375 C 48.050781 52.6875 47.984375 52.769531 47.925781 52.855469 C 47.859375 52.953125 47.808594 53.097656 47.773438 53.191406 C 47.757812 53.238281 47.746094 53.28125 47.738281 53.328125 C 47.71875 53.453125 47.691406 53.601562 47.699219 53.730469 C 47.707031 53.839844 47.722656 53.945312 47.742188 54.050781 C 47.746094 54.074219 47.75 54.101562 47.757812 54.125 C 47.769531 54.175781 47.785156 54.21875 47.800781 54.265625 C 47.851562 54.382812 47.898438 54.519531 47.96875 54.628906 C 48.035156 54.742188 48.125 54.84375 48.207031 54.945312 C 48.296875 55.042969 48.402344 55.113281 48.527344 55.152344 C 48.648438 55.214844 48.777344 55.242188 48.914062 55.238281 C 49.050781 55.242188 49.179688 55.214844 49.300781 55.152344 C 49.425781 55.113281 49.53125 55.042969 49.621094 54.945312 C 49.65625 54.90625 49.679688 54.855469 49.710938 54.8125 C 49.886719 54.738281 50.023438 54.664062 50.191406 54.523438 C 50.300781 54.429688 50.394531 54.308594 50.460938 54.183594 C 50.566406 53.96875 50.636719 53.761719 50.636719 53.519531 C 50.632812 53.273438 50.566406 53.027344 50.441406 52.816406 C 50.316406 52.605469 50.140625 52.425781 49.933594 52.304688 Z M 49.933594 52.304688 "/>
<path style=" stroke:none;fill-rule:nonzero;fill:rgb(0.392157%,0.392157%,0.392157%);fill-opacity:1;" d="M 71.867188 61.785156 C 70.957031 61.242188 69.878906 61.011719 68.832031 60.9375 C 68.78125 60.933594 68.730469 60.945312 68.679688 60.941406 C 71.023438 45.125 74.363281 29.375 78.964844 14.0625 C 79.171875 13.378906 78.457031 12.558594 77.734375 12.832031 C 76.132812 13.4375 74.9375 14.472656 73.621094 15.4375 C 73.292969 13.839844 72.972656 12.238281 72.699219 10.632812 C 72.570312 9.882812 71.511719 9.683594 71.027344 10.191406 C 70.113281 11.152344 69.199219 12.117188 68.28125 13.078125 C 67.882812 11.835938 67.484375 10.59375 67.082031 9.351562 C 66.867188 8.671875 65.941406 8.324219 65.410156 8.90625 C 64.277344 10.160156 63.273438 11.511719 62.335938 12.910156 C 61.3125 11.332031 60.589844 9.597656 60.164062 7.75 C 59.992188 7 59.011719 6.800781 58.492188 7.308594 C 57.414062 8.363281 56.488281 9.539062 55.640625 10.773438 C 54.953125 9.585938 54.292969 8.378906 53.6875 7.144531 C 53.410156 6.582031 52.527344 6.488281 52.117188 6.945312 C 51.078125 8.089844 50.042969 9.238281 49.007812 10.382812 C 48.488281 8.988281 48.039062 7.574219 47.699219 6.125 C 47.519531 5.371094 46.550781 5.183594 46.027344 5.683594 C 44.746094 6.898438 43.636719 8.261719 42.710938 9.753906 C 41.882812 8.425781 41.054688 7.101562 40.226562 5.777344 C 39.824219 5.132812 38.898438 5.128906 38.5 5.777344 C 37.582031 7.257812 36.78125 8.800781 36.039062 10.371094 C 35.097656 8.949219 34.148438 7.523438 33.265625 6.058594 C 32.789062 5.269531 31.738281 5.519531 31.4375 6.296875 C 30.914062 7.644531 30.53125 9.023438 30.207031 10.414062 C 29.230469 8.972656 28.257812 7.527344 27.28125 6.085938 C 26.695312 5.21875 25.527344 5.609375 25.414062 6.589844 C 24.242188 16.96875 23.8125 27.421875 24.125 37.863281 C 22.960938 38.238281 21.949219 39.140625 21.449219 40.234375 C 20.792969 41.667969 20.886719 43.222656 21.414062 44.664062 C 19.144531 47.023438 17.859375 50.285156 18.347656 53.632812 C 18.6875 55.984375 19.9375 58.054688 21.753906 59.546875 C 21.492188 59.84375 21.261719 60.171875 21.089844 60.566406 C 20.386719 62.160156 20.914062 63.839844 21.96875 65.09375 C 20.449219 68.558594 18.921875 72.496094 20.605469 76.203125 C 22.144531 79.59375 25.839844 80.625 29.242188 81 C 32.601562 81.375 35.996094 81.464844 39.390625 81.308594 C 39.839844 83.050781 41.179688 84.351562 42.898438 85.035156 C 43.46875 85.261719 44.054688 85.421875 44.65625 85.539062 C 45.265625 85.65625 46.042969 85.617188 46.542969 85.992188 C 47.132812 86.441406 47.140625 87.359375 47.273438 88.085938 C 47.425781 88.933594 47.546875 89.785156 47.644531 90.640625 C 47.699219 91.125 47.925781 91.433594 48.378906 91.605469 C 52.625 93.234375 57.269531 92.839844 61.550781 91.542969 C 63.609375 90.921875 65.65625 90.136719 67.605469 89.21875 C 69.195312 88.472656 70.515625 87.46875 71.210938 85.839844 C 71.214844 85.839844 71.214844 85.835938 71.214844 85.832031 C 71.238281 85.785156 71.269531 85.746094 71.289062 85.695312 C 71.300781 85.664062 71.296875 85.640625 71.304688 85.613281 C 71.332031 85.535156 71.34375 85.449219 71.347656 85.359375 C 71.347656 85.308594 71.347656 85.261719 71.339844 85.214844 C 71.332031 85.160156 71.347656 85.113281 71.328125 85.054688 C 70.261719 80.984375 69.445312 76.851562 68.855469 72.683594 C 71.015625 72.324219 73.089844 70.546875 73.71875 68.453125 C 74.441406 66.074219 74.214844 63.179688 71.867188 61.785156 Z M 71.855469 64.628906 C 71.855469 64.632812 71.855469 64.632812 71.859375 64.632812 C 71.792969 64.492188 71.839844 64.582031 71.855469 64.628906 Z M 23.324219 45.53125 C 26.972656 42.257812 32.960938 42.367188 36.046875 46.382812 C 36.175781 46.546875 36.332031 46.644531 36.496094 46.710938 C 35.285156 48.386719 34.480469 50.359375 34.316406 52.523438 C 34.179688 54.34375 34.519531 56.03125 35.195312 57.570312 C 32.546875 57.582031 29.898438 57.582031 27.25 57.628906 C 25.964844 57.648438 24.5625 57.824219 23.378906 58.363281 C 23.355469 58.347656 23.347656 58.320312 23.320312 58.304688 C 18.925781 55.226562 19.632812 48.84375 23.324219 45.53125 Z M 42.058594 44.554688 C 45.996094 42.652344 51.070312 43.3125 54.191406 46.449219 C 57.617188 49.894531 57.558594 54.789062 55.195312 58.804688 C 54.5625 59.882812 53.777344 60.910156 52.703125 61.589844 C 51.675781 62.234375 50.453125 62.519531 49.277344 62.761719 C 46.730469 63.292969 43.964844 63.460938 41.664062 62.050781 C 39.195312 60.375 36.933594 57.886719 36.410156 54.886719 C 35.65625 50.527344 38.171875 46.4375 42.058594 44.554688 Z M 72.074219 66.5625 C 72.070312 66.625 72.015625 67.019531 72.066406 66.703125 C 72.050781 66.800781 72.035156 66.894531 72.019531 66.992188 C 71.980469 67.195312 71.9375 67.394531 71.886719 67.59375 C 71.8125 67.890625 71.714844 68.179688 71.609375 68.46875 C 71.605469 68.480469 71.609375 68.476562 71.605469 68.484375 C 71.601562 68.488281 71.605469 68.484375 71.601562 68.492188 C 71.464844 68.6875 71.34375 68.890625 71.195312 69.074219 C 70.089844 70.445312 67.871094 71.5625 66.429688 69.988281 C 65.558594 69.035156 64.148438 70.453125 65.015625 71.402344 C 65.554688 71.988281 66.171875 72.367188 66.820312 72.574219 C 67.398438 76.847656 68.238281 81.070312 69.320312 85.242188 C 68.707031 86.683594 66.996094 87.351562 65.652344 87.921875 C 63.855469 88.679688 62.019531 89.371094 60.136719 89.882812 C 56.636719 90.828125 53 91.042969 49.546875 89.894531 C 49.40625 88.800781 49.242188 87.710938 49.023438 86.632812 C 48.800781 85.554688 48.601562 84.355469 47.410156 83.96875 C 46.203125 83.578125 44.886719 83.679688 43.675781 83.203125 C 42.707031 82.824219 41.820312 82.140625 41.445312 81.183594 C 46.476562 80.804688 51.476562 79.898438 56.296875 78.523438 C 56.40625 78.710938 56.539062 78.890625 56.625 79.09375 C 56.660156 79.1875 56.699219 79.28125 56.730469 79.378906 C 56.808594 79.625 56.964844 79.84375 57.191406 79.976562 C 57.402344 80.101562 57.71875 80.152344 57.960938 80.074219 C 58.460938 79.914062 58.828125 79.378906 58.65625 78.847656 C 58.207031 77.429688 57.296875 76.226562 56.066406 75.394531 C 55.859375 75.253906 55.53125 75.226562 55.296875 75.292969 C 55.0625 75.359375 54.8125 75.539062 54.699219 75.753906 C 54.492188 76.140625 54.542969 76.550781 54.785156 76.863281 C 47.46875 78.835938 39.890625 79.675781 32.316406 79.25 C 29.332031 79.085938 25.304688 79.039062 23.175781 76.570312 C 20.671875 73.671875 22.210938 69.542969 23.558594 66.433594 C 24.640625 67.050781 25.867188 67.378906 27.074219 67.640625 C 28.523438 67.957031 29.976562 68.253906 31.425781 68.554688 C 32.683594 68.820312 33.21875 66.890625 31.957031 66.628906 C 30.757812 66.375 29.558594 66.125 28.359375 65.871094 C 27.324219 65.652344 26.261719 65.457031 25.277344 65.058594 C 23.851562 64.480469 21.929688 62.714844 23.097656 61.050781 C 24.328125 59.300781 27.082031 59.632812 28.929688 59.617188 C 31.398438 59.601562 33.867188 59.582031 36.335938 59.5625 C 37.464844 61.203125 38.957031 62.628906 40.652344 63.777344 C 43.011719 65.222656 45.761719 65.332031 48.429688 64.941406 C 51.058594 64.550781 53.707031 63.839844 55.523438 61.769531 C 59.085938 57.710938 60.171875 51.570312 57.125 46.925781 C 54.203125 42.46875 48.484375 40.546875 43.390625 41.9375 C 41.199219 42.535156 39.242188 43.726562 37.699219 45.292969 C 34.734375 41.519531 29.636719 40.164062 25.191406 42.035156 C 24.425781 42.359375 23.71875 42.792969 23.046875 43.269531 C 23.023438 43.171875 23.003906 43.074219 22.984375 42.976562 C 22.984375 42.957031 22.980469 42.929688 22.980469 42.90625 C 22.972656 42.820312 22.96875 42.734375 22.964844 42.648438 C 22.957031 42.496094 22.960938 42.34375 22.96875 42.1875 C 22.96875 42.171875 22.980469 42.042969 22.984375 42.003906 C 22.988281 41.984375 23 41.90625 23.003906 41.894531 C 23.03125 41.742188 23.066406 41.59375 23.113281 41.445312 C 23.136719 41.367188 23.171875 41.289062 23.195312 41.210938 C 23.195312 41.203125 23.195312 41.207031 23.195312 41.203125 C 23.203125 41.191406 23.203125 41.191406 23.214844 41.171875 C 23.273438 41.054688 23.335938 40.9375 23.402344 40.824219 C 23.425781 40.789062 23.53125 40.640625 23.550781 40.609375 C 23.699219 40.429688 23.863281 40.265625 24.039062 40.113281 C 24.0625 40.09375 24.097656 40.066406 24.109375 40.058594 C 24.171875 40.019531 24.230469 39.976562 24.292969 39.941406 C 24.34375 39.910156 24.390625 39.882812 24.441406 39.859375 C 24.453125 39.851562 24.511719 39.824219 24.550781 39.804688 C 24.582031 39.792969 24.625 39.773438 24.636719 39.769531 C 24.703125 39.746094 24.773438 39.722656 24.839844 39.707031 C 24.980469 39.667969 25.121094 39.640625 25.261719 39.621094 C 25.683594 39.5625 25.960938 39.109375 25.980469 38.6875 C 26.070312 38.542969 26.136719 38.375 26.132812 38.15625 C 25.832031 28.574219 26.195312 18.988281 27.144531 9.453125 C 28.042969 10.78125 28.941406 12.113281 29.839844 13.441406 C 30.265625 14.070312 31.527344 14.125 31.667969 13.203125 C 31.894531 11.726562 32.261719 10.296875 32.699219 8.878906 C 33.554688 10.238281 34.398438 11.609375 35.304688 12.933594 C 35.679688 13.480469 36.710938 13.683594 37.03125 12.933594 C 37.722656 11.3125 38.53125 9.761719 39.402344 8.234375 C 40.230469 9.558594 41.058594 10.886719 41.886719 12.210938 C 42.265625 12.816406 43.257812 12.902344 43.613281 12.210938 C 44.34375 10.796875 45.214844 9.519531 46.246094 8.347656 C 46.679688 9.847656 47.175781 11.324219 47.785156 12.773438 C 48.035156 13.359375 48.964844 13.40625 49.355469 12.972656 C 50.4375 11.777344 51.519531 10.585938 52.597656 9.386719 C 53.261719 10.664062 53.953125 11.925781 54.707031 13.152344 C 55.097656 13.792969 56.046875 13.808594 56.433594 13.152344 C 57.097656 12.023438 57.886719 11.003906 58.734375 10.023438 C 59.398438 11.957031 60.375 13.738281 61.644531 15.378906 C 62.050781 15.90625 62.914062 15.671875 63.214844 15.179688 C 63.964844 13.9375 64.820312 12.78125 65.726562 11.660156 C 66.109375 12.859375 66.496094 14.058594 66.878906 15.257812 C 67.101562 15.949219 68.011719 16.265625 68.550781 15.699219 C 69.40625 14.796875 70.265625 13.894531 71.121094 12.992188 C 71.390625 14.460938 71.652344 15.929688 71.964844 17.390625 C 72.101562 18.015625 72.90625 18.3125 73.433594 17.988281 C 74.472656 17.347656 75.386719 16.539062 76.371094 15.839844 C 72.035156 30.699219 68.855469 45.945312 66.621094 61.253906 C 65.941406 61.492188 65.300781 61.855469 64.71875 62.304688 C 64.292969 62.636719 64.371094 63.371094 64.71875 63.71875 C 65.140625 64.140625 65.707031 64.050781 66.132812 63.71875 C 66.894531 63.128906 67.878906 62.867188 68.832031 62.941406 C 69.171875 62.964844 69.441406 63.011719 69.792969 63.097656 C 69.96875 63.140625 70.140625 63.191406 70.308594 63.253906 C 70.359375 63.273438 70.40625 63.289062 70.457031 63.308594 C 70.476562 63.316406 70.597656 63.371094 70.617188 63.382812 C 70.753906 63.457031 70.882812 63.53125 71.011719 63.613281 C 71.011719 63.609375 71.074219 63.65625 71.121094 63.6875 C 71.15625 63.71875 71.214844 63.765625 71.214844 63.765625 C 71.300781 63.847656 71.390625 63.929688 71.46875 64.019531 C 71.5 64.050781 71.53125 64.085938 71.558594 64.121094 C 71.574219 64.140625 71.597656 64.175781 71.621094 64.210938 C 71.6875 64.316406 71.746094 64.425781 71.808594 64.535156 C 71.824219 64.570312 71.84375 64.605469 71.859375 64.640625 C 71.945312 64.882812 72 65.121094 72.058594 65.371094 C 72.066406 65.410156 72.070312 65.414062 72.074219 65.425781 C 72.074219 65.4375 72.074219 65.449219 72.074219 65.503906 C 72.082031 65.621094 72.09375 65.738281 72.097656 65.859375 C 72.105469 66.09375 72.097656 66.324219 72.074219 66.5625 Z M 72.074219 66.5625 "/>
<path style=" stroke:none;fill-rule:nonzero;fill:rgb(0.392157%,0.392157%,0.392157%);fill-opacity:1;" d="M 68.984375 65.367188 C 67.691406 65.101562 66.300781 65.410156 65.355469 66.367188 C 64.988281 66.738281 64.957031 67.414062 65.355469 67.78125 C 65.753906 68.144531 66.375 68.179688 66.769531 67.78125 C 66.816406 67.734375 66.867188 67.695312 66.914062 67.652344 C 67.039062 67.566406 67.175781 67.492188 67.3125 67.425781 C 67.472656 67.367188 67.636719 67.324219 67.804688 67.292969 C 68.011719 67.273438 68.214844 67.269531 68.421875 67.289062 C 68.433594 67.292969 68.441406 67.292969 68.453125 67.296875 C 68.714844 67.351562 68.984375 67.332031 69.222656 67.195312 C 69.429688 67.074219 69.628906 66.835938 69.683594 66.597656 C 69.738281 66.34375 69.726562 66.054688 69.582031 65.828125 C 69.445312 65.617188 69.238281 65.421875 68.984375 65.367188 Z M 68.984375 65.367188 "/>
</g>
</svg>
