<?xml version="1.0" standalone="no"?>
<!DOCTYPE svg PUBLIC "-//W3C//DTD SVG 20010904//EN"
 "http://www.w3.org/TR/2001/REC-SVG-20010904/DTD/svg10.dtd">
<svg version="1.0" xmlns="http://www.w3.org/2000/svg"
 width="1280.000000pt" height="984.000000pt" viewBox="0 0 1280.000000 984.000000"
 preserveAspectRatio="xMidYMid meet">
<metadata>
Created by potrace 1.15, written by Peter Selinger 2001-2017
</metadata>
<g transform="translate(0.000000,984.000000) scale(0.100000,-0.100000)"
fill="#000000" stroke="none">
<path d="M6245 9827 c-62 -29 -85 -82 -85 -195 l0 -75 52 -46 c243 -214 368
-375 339 -437 -23 -52 -136 -78 -417 -94 -264 -15 -322 -32 -459 -134 -85 -63
-346 -236 -395 -261 -32 -16 -64 -18 -370 -16 -316 2 -597 -9 -790 -29 -73 -8
-88 -13 -107 -35 -13 -14 -23 -36 -23 -48 0 -30 87 -110 265 -242 166 -124
230 -187 269 -263 43 -85 43 -85 -81 -80 -125 5 -180 22 -270 80 -34 22 -94
53 -134 69 -65 27 -81 29 -194 29 -103 0 -141 5 -243 30 -143 36 -208 62 -357
141 -97 51 -138 66 -291 105 -360 91 -390 103 -468 183 -42 43 -62 54 -130 75
-119 37 -160 45 -302 55 -169 13 -238 37 -399 139 -40 26 -116 49 -380 117
-182 47 -382 98 -445 115 -325 86 -726 117 -799 62 -14 -10 -27 -26 -29 -34
-5 -27 122 -111 301 -201 214 -106 373 -169 530 -209 167 -42 390 -137 856
-362 166 -81 365 -173 443 -207 184 -79 212 -93 279 -146 65 -51 142 -83 200
-83 22 0 58 -9 81 -21 22 -11 75 -35 117 -53 42 -18 145 -72 230 -120 176
-101 430 -226 641 -316 298 -127 801 -387 859 -444 20 -20 22 -30 17 -62 -9
-46 -51 -89 -102 -103 -21 -6 -85 -14 -142 -17 -56 -4 -105 -11 -108 -16 -8
-12 42 -94 68 -113 18 -12 53 -15 173 -15 174 0 195 -7 195 -66 0 -41 -12 -68
-47 -105 l-24 -26 44 -12 c106 -26 146 -129 157 -396 7 -171 9 -185 43 -289
44 -131 46 -169 11 -325 -46 -208 -58 -238 -383 -949 -114 -248 -140 -319
-160 -429 -19 -103 -63 -193 -219 -440 -268 -428 -318 -536 -329 -703 -11
-169 20 -269 141 -457 147 -228 184 -322 189 -485 2 -79 6 -100 22 -118 31
-35 47 -40 177 -56 68 -8 150 -22 183 -30 83 -22 195 -75 271 -129 144 -103
281 -115 607 -54 337 62 617 228 687 406 13 32 29 72 37 88 7 17 65 77 129
135 76 69 128 125 152 165 92 153 239 376 289 438 78 97 265 257 441 377 85
57 162 116 173 131 10 14 21 46 24 70 4 35 12 50 42 74 78 64 149 115 161 115
32 0 122 -261 154 -444 17 -105 20 -150 15 -341 -5 -250 -19 -343 -112 -770
-30 -137 -73 -340 -95 -450 -23 -110 -95 -414 -161 -676 -66 -262 -126 -514
-134 -560 -17 -96 -20 -225 -5 -234 16 -10 42 9 288 213 130 108 261 212 290
230 59 36 155 76 452 187 314 118 308 116 423 113 l102 -3 -81 -82 c-94 -94
-221 -181 -337 -229 l-82 -34 80 0 c160 0 338 31 516 90 126 42 203 78 346
163 98 58 162 81 209 75 25 -3 30 -8 37 -46 6 -33 5 -48 -6 -60 -35 -42 -33
-45 34 -37 35 4 95 14 132 22 83 18 100 14 91 -24 -10 -43 -39 -69 -121 -107
-63 -30 -74 -39 -71 -58 5 -33 79 -49 203 -46 133 5 183 28 395 193 265 204
362 265 485 301 82 25 235 24 340 -1 53 -13 116 -19 185 -19 199 0 329 60 585
274 153 128 263 191 410 235 182 54 222 68 299 107 366 183 522 431 462 738
-28 143 -31 296 -10 455 24 180 24 389 0 505 -25 119 -78 257 -147 380 -130
235 -219 451 -275 674 -14 55 -37 125 -51 155 -44 92 -414 574 -692 901 -160
188 -522 548 -631 627 -160 116 -158 114 -276 346 -177 349 -269 491 -413 640
-85 88 -144 129 -227 158 -119 42 -451 344 -775 703 -147 164 -331 338 -509
481 -130 105 -158 133 -222 225 -57 81 -161 180 -219 208 -24 12 -80 28 -124
37 -133 25 -192 61 -340 206 -129 126 -132 128 -305 220 -219 116 -384 191
-570 259 -160 58 -305 126 -393 184 -32 21 -61 35 -65 32 -4 -4 5 -29 19 -56
15 -27 24 -52 21 -55 -15 -15 -42 3 -121 80 -56 54 -95 85 -109 85 -21 0 -21
-3 18 -81 23 -44 40 -87 38 -95 -4 -17 -163 128 -184 168 -14 27 -14 32 1 55
9 13 33 32 53 40 48 20 115 6 178 -38 25 -17 48 -29 51 -26 9 10 -8 66 -29 92
-45 58 -170 91 -233 62z m623 -491 c75 -29 148 -57 161 -61 64 -19 256 -113
384 -186 253 -145 355 -223 467 -357 85 -101 143 -197 271 -453 116 -232 114
-220 74 -461 -25 -155 -31 -238 -17 -238 4 0 28 21 52 46 25 25 57 52 73 60
26 14 28 14 38 -13 6 -15 12 -73 12 -128 1 -148 -15 -199 -129 -415 -13 -25
-33 -83 -45 -130 -18 -71 -21 -104 -17 -205 9 -206 56 -286 278 -473 311 -263
348 -306 371 -434 15 -84 2 -187 -36 -282 -14 -34 -25 -68 -25 -75 0 -19 38 5
101 66 54 51 79 62 108 44 11 -7 11 -37 1 -184 -7 -96 -10 -195 -6 -220 11
-74 53 -126 160 -200 53 -37 100 -67 106 -67 5 0 17 14 26 32 25 48 14 114
-36 215 -38 76 -44 97 -48 168 -7 133 43 277 128 366 31 33 43 39 53 31 22
-18 66 -116 78 -173 15 -67 6 -210 -16 -269 -24 -67 -38 -192 -22 -202 30 -19
55 -2 175 123 l127 131 7 -73 c9 -99 0 -282 -18 -345 -13 -49 -17 -53 -68 -73
-103 -42 -137 -102 -134 -239 2 -71 -1 -94 -16 -116 -25 -39 -89 -64 -185 -72
l-83 -7 6 -31 c9 -44 50 -81 116 -105 65 -24 104 -58 119 -104 10 -32 59 -409
81 -624 18 -181 17 -368 -4 -438 -27 -93 -73 -169 -137 -230 -33 -31 -59 -58
-59 -61 0 -2 39 -2 88 0 95 4 186 32 217 66 26 28 35 25 35 -12 0 -47 -24 -78
-115 -149 -44 -35 -117 -95 -162 -135 -89 -79 -128 -102 -275 -159 -54 -20
-98 -43 -98 -50 0 -29 77 -67 157 -77 103 -13 348 -4 447 17 46 10 82 13 88 7
5 -5 -28 -56 -81 -123 -84 -106 -89 -114 -69 -122 27 -10 95 0 172 24 60 19
136 25 136 11 0 -4 -56 -63 -123 -130 l-124 -122 -99 0 c-87 0 -168 13 -226
35 -16 6 -18 -1 -18 -69 0 -68 -3 -80 -24 -101 -13 -13 -37 -27 -53 -31 -70
-17 -69 -43 2 -86 30 -18 55 -39 55 -46 0 -8 -29 -43 -65 -79 -36 -36 -65 -67
-65 -69 0 -2 52 -4 116 -4 l115 0 -20 -26 c-25 -31 -27 -72 -6 -100 8 -10 15
-22 15 -26 0 -11 -129 -83 -195 -108 -43 -16 -83 -23 -141 -24 -136 -2 -154
18 -286 314 l-15 35 -22 -35 c-19 -32 -21 -49 -21 -211 0 -129 -3 -179 -12
-187 -7 -5 -62 -27 -123 -48 -129 -44 -217 -51 -275 -21 -19 10 -59 21 -87 24
l-53 6 0 -33 c0 -53 29 -100 85 -135 53 -34 75 -67 75 -113 0 -27 -5 -29 -127
-69 -458 -148 -634 -240 -822 -432 l-94 -96 6 135 c4 120 11 161 60 360 30
124 74 308 97 410 52 231 187 815 234 1015 87 367 105 610 67 880 -11 83 -24
184 -27 225 l-7 75 40 50 c22 28 196 210 388 405 416 426 596 623 678 749 50
75 63 89 65 71 2 -13 -5 -50 -17 -84 -25 -75 -38 -186 -23 -186 6 0 27 33 47
74 84 175 102 352 65 653 -13 103 -27 193 -32 200 -12 15 -36 6 -42 -15 -3
-10 -14 -84 -26 -167 -34 -250 -51 -336 -83 -425 -27 -75 -38 -93 -96 -150
-37 -36 -165 -144 -286 -242 -121 -97 -256 -206 -300 -244 -183 -154 -320
-215 -560 -249 -82 -11 -125 -23 -175 -48 l-65 -32 98 -3 c53 -1 97 -5 97 -8
0 -11 -284 -309 -334 -351 -126 -105 -238 -185 -326 -233 -124 -68 -177 -108
-232 -172 -68 -80 -93 -125 -127 -220 -41 -118 -52 -137 -119 -210 -104 -113
-158 -181 -242 -303 -135 -195 -190 -266 -265 -340 -157 -156 -346 -211 -761
-222 -217 -6 -223 -5 -258 16 -39 25 -56 48 -56 79 0 16 28 32 142 80 79 33
161 65 183 72 194 61 325 185 550 524 121 181 194 271 313 381 l73 68 -3 61
c-2 46 -7 62 -19 64 -28 5 -106 -76 -194 -203 -291 -418 -670 -759 -961 -864
-47 -17 -124 -38 -171 -46 -99 -17 -369 -20 -425 -5 -40 12 -43 17 -68 141
-11 58 -144 341 -184 394 -91 120 -129 298 -107 499 20 179 90 340 300 698
123 210 227 427 247 513 22 95 25 103 217 500 178 369 212 455 248 625 25 123
32 376 11 447 -55 187 -21 382 123 705 75 167 99 204 147 229 66 33 106 23
181 -48 74 -69 112 -83 224 -83 153 0 171 5 238 75 137 141 236 407 236 633 0
123 -19 164 -111 239 -124 102 -143 179 -76 318 27 58 54 95 108 149 l73 71 6
-140 c10 -212 35 -286 244 -715 122 -250 185 -410 185 -470 0 -37 51 -32 69 6
7 17 11 134 11 359 0 184 2 335 4 335 3 0 39 -24 80 -54 92 -66 180 -101 391
-155 504 -131 683 -228 765 -414 28 -63 43 -180 33 -252 l-8 -60 -57 -20 c-69
-25 -72 -27 -64 -60 8 -33 58 -55 121 -55 77 0 149 40 180 101 30 56 47 188
43 313 -6 148 -37 251 -110 362 -90 139 -202 234 -500 426 -207 132 -266 178
-379 295 -186 192 -227 298 -254 663 -23 312 -35 427 -51 488 -8 30 -60 146
-115 258 -56 112 -98 208 -94 213 8 14 49 4 97 -22 88 -48 134 -157 253 -602
173 -645 230 -764 390 -824 88 -33 99 -28 103 42 2 40 7 57 15 54 12 -3 62
-62 156 -178 l44 -54 -5 95 c-6 111 -23 159 -101 298 -31 53 -64 127 -75 163
-23 74 -39 209 -26 209 18 -1 194 -279 194 -307 0 -8 19 -31 41 -53 35 -33 41
-43 35 -67 -15 -66 -18 -145 -7 -190 17 -69 98 -230 121 -243 30 -16 60 -3 60
25 0 70 -24 243 -45 330 -76 307 -219 539 -554 900 -98 106 -292 287 -324 303
-12 6 -40 19 -61 28 -38 17 -146 117 -146 135 0 19 44 7 178 -45z m-6338 -346
c101 -17 172 -54 235 -122 30 -33 55 -55 55 -50 0 4 9 18 20 30 26 27 70 28
218 6 320 -47 569 -150 644 -265 17 -27 36 -48 42 -46 6 2 11 26 11 53 0 43 3
49 22 52 17 3 24 -3 29 -22 3 -14 4 -33 0 -41 -5 -13 4 -14 62 -9 74 7 224 -8
317 -32 203 -52 331 -180 381 -384 l19 -75 5 105 5 105 55 3 c70 4 228 -13
305 -33 74 -19 165 -61 259 -119 39 -25 94 -51 121 -59 140 -43 187 -58 265
-86 100 -36 145 -38 235 -10 104 32 143 15 217 -93 58 -86 111 -206 148 -333
17 -60 36 -114 41 -119 17 -18 9 106 -11 192 -11 46 -20 105 -20 133 0 58 -3
58 131 29 70 -15 113 -18 170 -14 60 5 83 3 112 -11 128 -60 260 -325 300
-600 l13 -90 7 100 c14 205 9 271 -28 358 -7 16 7 17 209 17 l216 0 41 -37
c95 -86 219 -434 245 -688 7 -71 19 -89 41 -60 18 25 18 214 -1 280 -8 28 -26
79 -41 114 -15 35 -29 87 -32 117 -7 63 -9 62 118 40 100 -18 156 -48 175 -91
16 -40 20 -363 4 -429 -11 -50 -41 -91 -66 -91 -17 0 -20 10 -24 90 -3 61 -8
84 -13 70 -5 -11 -29 -76 -54 -145 -53 -148 -73 -182 -121 -215 -56 -38 -88
-33 -225 39 -67 36 -183 90 -257 122 -74 31 -175 81 -225 112 -534 325 -638
384 -669 378 -138 -27 -152 -21 -259 103 -143 166 -228 214 -419 236 -226 26
-344 77 -505 215 -40 35 -123 70 -164 70 -11 0 -70 23 -132 51 -61 28 -152 68
-202 89 -49 21 -243 110 -430 200 -627 299 -1158 530 -1274 554 -78 16 -241
89 -496 222 -209 109 -208 106 -35 100 80 -3 174 -11 210 -16z m4458 -523 c6
-29 -25 -54 -102 -83 -80 -31 -136 -79 -136 -117 0 -25 -22 -52 -33 -40 -14
13 -37 -21 -37 -54 0 -57 -21 -54 -189 33 -218 112 -403 217 -414 236 -6 8 -7
23 -4 32 6 15 47 16 459 14 429 -3 453 -4 456 -21z"/>
<path d="M6368 6403 c-10 -2 -18 -8 -18 -12 0 -4 72 -38 160 -75 87 -38 182
-84 209 -102 54 -37 121 -101 121 -117 0 -6 -29 -8 -75 -5 -65 4 -88 12 -187
61 -80 40 -133 58 -181 66 -215 32 -407 -96 -435 -291 l-7 -53 -73 -3 c-63 -3
-72 -5 -72 -22 0 -22 22 -46 49 -55 11 -3 46 1 79 10 33 8 68 15 78 15 11 0
51 -33 89 -74 39 -40 89 -83 112 -95 53 -26 149 -41 278 -40 207 0 322 40 437
152 86 84 238 292 238 325 0 18 -40 14 -89 -8 -49 -23 -43 -25 -136 50 -271
218 -455 305 -577 273z m230 -359 c24 -17 29 -34 9 -34 -20 0 -58 30 -52 41 8
13 17 11 43 -7z m-352 -126 c77 -156 116 -183 269 -182 106 0 121 6 196 84 83
86 157 118 210 90 46 -25 -7 -132 -85 -170 -60 -28 -222 -43 -391 -34 -156 8
-208 29 -299 124 -36 37 -66 75 -66 84 0 23 74 96 98 96 17 0 31 -19 68 -92z"/>
<path d="M4685 3113 c-71 -37 -117 -110 -157 -250 -19 -66 -23 -102 -23 -235
0 -86 4 -160 8 -164 4 -5 23 8 42 29 l34 37 195 0 195 0 20 26 c35 45 44 91
37 189 -13 183 -76 314 -177 366 -47 23 -132 25 -174 2z m239 -476 c14 -22 -4
-52 -30 -52 -23 0 -31 39 -13 61 14 17 28 14 43 -9z"/>
</g>
</svg>
